<svg xmlns="http://www.w3.org/2000/svg" xmlns:xlink="http://www.w3.org/1999/xlink" width="500" zoomAndPan="magnify" viewBox="0 0 375 374.999991" height="500" preserveAspectRatio="xMidYMid meet" version="1.0"><defs><g/></defs><g fill="#ffffff" fill-opacity="1"><g transform="translate(12.634785, 305.997314)"><g><path d="M 32.484375 0 L 29.53125 0 L 29.484375 -23.03125 L 19.3125 -2.953125 L 17.40625 -2.953125 L 7.265625 -23.03125 L 7.265625 0 L 4.234375 0 L 4.234375 -27.9375 L 8.1875 -27.9375 L 18.390625 -7.828125 L 28.578125 -27.9375 L 32.484375 -27.9375 Z M 32.484375 0 "/></g></g></g><g fill="#ffffff" fill-opacity="1"><g transform="translate(52.976745, 305.997314)"><g><path d="M 21.90625 -7.0625 L 6.671875 -7.0625 L 3.546875 0 L 0.15625 0 L 12.6875 -27.9375 L 16 -27.9375 L 28.5 0 L 25.015625 0 Z M 20.546875 -10.140625 L 14.25 -24.296875 L 8.015625 -10.140625 Z M 20.546875 -10.140625 "/></g></g></g><g fill="#ffffff" fill-opacity="1"><g transform="translate(85.218532, 305.997314)"><g><path d="M 22.5 0 L 16.71875 -8.90625 C 15.925781 -8.84375 15.300781 -8.8125 14.84375 -8.8125 L 7.421875 -8.8125 L 7.421875 0 L 4.234375 0 L 4.234375 -27.9375 L 14.84375 -27.9375 C 18.332031 -27.9375 21.039062 -27.117188 22.96875 -25.484375 C 24.894531 -23.847656 25.859375 -21.539062 25.859375 -18.5625 C 25.859375 -16.269531 25.316406 -14.351562 24.234375 -12.8125 C 23.160156 -11.269531 21.613281 -10.164062 19.59375 -9.5 L 26.140625 0 Z M 7.421875 -11.890625 L 14.84375 -11.890625 C 17.394531 -11.890625 19.351562 -12.445312 20.71875 -13.5625 C 22.09375 -14.6875 22.78125 -16.328125 22.78125 -18.484375 C 22.78125 -20.578125 22.09375 -22.160156 20.71875 -23.234375 C 19.351562 -24.316406 17.394531 -24.859375 14.84375 -24.859375 L 7.421875 -24.859375 Z M 7.421875 -11.890625 "/></g></g></g><g fill="#ffffff" fill-opacity="1"><g transform="translate(117.65984, 305.997314)"><g><path d="M 23.140625 0 L 12.84375 -13.25 L 7.421875 -7.296875 L 7.421875 0 L 4.234375 0 L 4.234375 -27.9375 L 7.421875 -27.9375 L 7.421875 -11.859375 L 22.421875 -27.9375 L 26.21875 -27.9375 L 15.171875 -15.796875 L 27.0625 0 Z M 23.140625 0 "/></g></g></g><g fill="#ffffff" fill-opacity="1"><g transform="translate(149.143473, 305.997314)"><g><path d="M 21.90625 -7.0625 L 6.671875 -7.0625 L 3.546875 0 L 0.15625 0 L 12.6875 -27.9375 L 16 -27.9375 L 28.5 0 L 25.015625 0 Z M 20.546875 -10.140625 L 14.25 -24.296875 L 8.015625 -10.140625 Z M 20.546875 -10.140625 "/></g></g></g><g fill="#ffffff" fill-opacity="1"><g transform="translate(181.385254, 305.997314)"><g><path d="M 15.71875 -27.9375 L 15.71875 -8.375 C 15.71875 -5.664062 15.015625 -3.566406 13.609375 -2.078125 C 12.203125 -0.585938 10.242188 0.15625 7.734375 0.15625 C 4.648438 0.15625 2.070312 -1.171875 0 -3.828125 L 1.59375 -6.390625 C 3.375 -4.234375 5.410156 -3.15625 7.703125 -3.15625 C 9.242188 -3.15625 10.425781 -3.601562 11.25 -4.5 C 12.070312 -5.40625 12.484375 -6.722656 12.484375 -8.453125 L 12.484375 -24.859375 L 2.515625 -24.859375 L 2.515625 -27.9375 Z M 15.71875 -27.9375 "/></g></g></g><g fill="#ffffff" fill-opacity="1"><g transform="translate(204.249999, 305.997314)"><g/></g></g><g fill="#a288a6" fill-opacity="1"><g transform="translate(218.779302, 305.997314)"><g><path d="M 32.484375 0 L 29.53125 0 L 29.484375 -23.03125 L 19.3125 -2.953125 L 17.40625 -2.953125 L 7.265625 -23.03125 L 7.265625 0 L 4.234375 0 L 4.234375 -27.9375 L 8.1875 -27.9375 L 18.390625 -7.828125 L 28.578125 -27.9375 L 32.484375 -27.9375 Z M 32.484375 0 "/></g></g></g><g fill="#ffffff" fill-opacity="1"><g transform="translate(259.12696, 305.997314)"><g><path d="M 23.1875 -24.859375 L 7.421875 -24.859375 L 7.421875 -15.6875 L 21.515625 -15.6875 L 21.515625 -12.609375 L 7.421875 -12.609375 L 7.421875 -3.03125 L 23.703125 -3.03125 L 23.703125 0 L 4.234375 0 L 4.234375 -27.9375 L 23.1875 -27.9375 Z M 23.1875 -24.859375 "/></g></g></g><g fill="#ffffff" fill-opacity="1"><g transform="translate(288.695292, 305.997314)"><g><path d="M 4.234375 -27.9375 L 15.53125 -27.9375 C 19.59375 -27.9375 23 -26.597656 25.75 -23.921875 C 28.507812 -21.242188 29.890625 -17.921875 29.890625 -13.953125 C 29.890625 -9.992188 28.503906 -6.675781 25.734375 -4 C 22.972656 -1.332031 19.53125 0 15.40625 0 L 4.234375 0 Z M 7.421875 -24.859375 L 7.421875 -3.03125 L 15.5625 -3.03125 C 18.695312 -3.03125 21.328125 -4.066406 23.453125 -6.140625 C 25.585938 -8.222656 26.65625 -10.816406 26.65625 -13.921875 C 26.65625 -17.035156 25.570312 -19.632812 23.40625 -21.71875 C 21.238281 -23.8125 18.582031 -24.859375 15.4375 -24.859375 Z M 7.421875 -24.859375 "/></g></g></g><g fill="#ffffff" fill-opacity="1"><g transform="translate(323.770144, 305.997314)"><g><path d="M 7.421875 0 L 4.234375 0 L 4.234375 -27.9375 L 7.421875 -27.9375 Z M 7.421875 0 "/></g></g></g><g fill="#ffffff" fill-opacity="1"><g transform="translate(339.013542, 305.997314)"><g><path d="M 21.90625 -7.0625 L 6.671875 -7.0625 L 3.546875 0 L 0.15625 0 L 12.6875 -27.9375 L 16 -27.9375 L 28.5 0 L 25.015625 0 Z M 20.546875 -10.140625 L 14.25 -24.296875 L 8.015625 -10.140625 Z M 20.546875 -10.140625 "/></g></g></g><g fill="#a288a6" fill-opacity="1"><g transform="translate(110.819212, 262.700466)"><g><path d="M 230.203125 -206.21875 L 230.203125 0 L 205.046875 0 L 205.046875 -149.171875 L 127.53125 -27.5 L 50.015625 -149.171875 L 50.015625 0 L 24.859375 0 L 24.859375 -206.21875 L 38.03125 -206.21875 L 127.53125 -69.328125 L 217.03125 -206.21875 Z M 230.203125 -206.21875 "/></g></g></g><g fill="#ffffff" fill-opacity="1"><g transform="translate(17.482269, 265.417937)"><g><path d="M 232.625 -208.390625 L 232.625 0 L 207.21875 0 L 207.21875 -150.75 L 128.875 -27.78125 L 50.546875 -150.75 L 50.546875 0 L 25.125 0 L 25.125 -208.390625 L 38.421875 -208.390625 L 128.875 -70.0625 L 219.328125 -208.390625 Z M 232.625 -208.390625 "/></g></g></g></svg>